<svg id="Layer_1" data-name="Layer 1" xmlns="http://www.w3.org/2000/svg" viewBox="0 0 250 250"><defs><style>.cls-1{fill:#333;fill-rule:evenodd;}</style></defs><title>Artboard 1</title><path class="cls-1" d="M186.39,34.09H175.55c0-16.7-20.32-30.24-45.37-30.24S84.81,17.39,84.81,34.09H74A30.25,30.25,0,0,0,43.73,64.34L37.3,215.57a30.25,30.25,0,0,0,30.25,30.25H192.82a30.25,30.25,0,0,0,30.24-30.25L216.63,64.34A30.25,30.25,0,0,0,186.39,34.09ZM130.18,19c16.7,0,30.25,4.68,30.25,15.12H99.94C99.94,23.65,113.48,19,130.18,19Zm62.64,211.72H67.55a15.13,15.13,0,0,1-15.13-15.12L58.85,64.34A15.13,15.13,0,0,1,74,49.22H84.81v25c-9.57.78-9,15.1.62,15.1H99.32c9.6,0,10.19-14.32.62-15.1v-25h60.49v25c-9.58.78-9,15.1.61,15.1h13.89c9.61,0,10.2-14.32.62-15.1v-25h10.84a15.13,15.13,0,0,1,15.12,15.13l6.43,151.23A15.13,15.13,0,0,1,192.82,230.69Z"/></svg>